<!--?xml version="1.0" standalone="no"?-->
              <svg id="sw-js-blob-svg" viewBox="0 0 100 100" xmlns="http://www.w3.org/2000/svg" version="1.1">
                    <defs> 
                        <linearGradient id="sw-gradient" x1="0" x2="1" y1="1" y2="0">
                            <stop id="stop1" stop-color="rgba(94,55,15, 1)" offset="0%"></stop>
                            <stop id="stop2" stop-color="rgba(143,80,16, 1)" offset="100%"></stop>
                        </linearGradient>
                    </defs>
                <path fill="url(#sw-gradient)" d="M21.2,-28.5C27.7,-24.4,33.2,-18.5,36.2,-11.3C39.2,-4.1,39.5,4.4,36.4,11.2C33.4,18,26.9,23.1,20.3,26.6C13.7,30,6.8,31.8,-0.6,32.7C-8,33.5,-16,33.2,-23.7,30.1C-31.3,27,-38.7,21,-40.9,13.5C-43.1,5.9,-40.1,-3.1,-36.8,-11.6C-33.5,-20,-29.8,-28,-23.6,-32.2C-17.4,-36.3,-8.7,-36.7,-0.7,-35.7C7.4,-34.8,14.7,-32.6,21.2,-28.5Z" width="100%" height="100%" transform="translate(50 50)" stroke-width="0" style="transition: all 0.3s ease 0s;"></path>
              </svg>