<svg id="Layer_1" data-name="Layer 1" xmlns="http://www.w3.org/2000/svg" viewBox="0 0 54.9 77.54"><defs><style>.cls-1{fill:#0c6619;}.cls-2{fill:#0b7021;}.cls-3{fill:#0e751f;}.cls-4{fill:#0e891c;}.cls-5{fill:#248933;}</style></defs><title>plant1</title><path class="cls-1" d="M52.19,91.8l-1.7-.87c6.1-30.16,0-63.23,0-63.56l1.72-.81C52.26,26.89,58.47,60.78,52.19,91.8Z" transform="translate(-24.52 -14.26)"/><path class="cls-2" d="M70.19,15.14S56.61,9.34,48.12,27.5C48.12,27.5,62.11,35.57,70.19,15.14Z" transform="translate(-24.52 -14.26)"/><path class="cls-3" d="M49.89,24.73c-.13-.31-22.26,11.91-11.21,38.05C38.68,62.78,60.34,48.81,49.89,24.73Z" transform="translate(-24.52 -14.26)"/><path class="cls-4" d="M79.42,41.43c.28-.07-6.28-21.25-30-16.24C49.46,25.19,57.56,46.27,79.42,41.43Z" transform="translate(-24.52 -14.26)"/><path class="cls-5" d="M51.72,25.18s-16.44-8.43-27.2,13.4C24.52,38.58,43.72,42.39,51.72,25.18Z" transform="translate(-24.52 -14.26)"/></svg>