<svg xmlns="http://www.w3.org/2000/svg" viewBox="0 0 58.84 58.61"><defs><style>.cls-1{fill:#32772b;}.cls-2{fill:#306d2b;}.cls-3{fill:none;stroke:#258418;stroke-miterlimit:10;stroke-width:0.15px;}</style></defs><title>Asset 2</title><g id="Layer_2" data-name="Layer 2"><g id="Layer_1-2" data-name="Layer 1"><path class="cls-1" d="M27.77,56.36s2.25-24.25-5.25-27S9.77,17.18,9.77,17.18s5.5,10.43,16,8.68S41,3.82,41,3.82s1.5,19.79-12.86,24.63c0,0,8,26.54,4.86,27.91C26.14,59.39,27.58,59.32,27.77,56.36Z"/><path class="cls-2" d="M41.07,7.74S42.33-.17,51.3.71,58.74,0,58.74,0,55.52,16.79,41.07,7.74Z"/><path class="cls-2" d="M38.68,10.64a14.46,14.46,0,0,1-.22-3.35c0-1.3-.46-3.18-3.71-3.35C29.75,3.67,30,0,30,0s-4.29,10.09,4.23,10.69c0,0,5.14.36,4.77,1.48Z"/><path class="cls-1" d="M9.49,17.39s-4.38-.76-3.38-5.2C6.11,12.19,11,11.51,9.49,17.39Z"/><path class="cls-2" d="M9.77,17.8S3.91,23.47,0,16.13C0,16.13,5.84,12.42,9.77,17.8Z"/><path class="cls-3" d="M42.27,7.28S51.61,6,57.77,1.44"/><path class="cls-3" d="M29.94,1.44A6.27,6.27,0,0,0,34.83,7.8a5.59,5.59,0,0,1,3.55,4"/><path class="cls-3" d="M.36,16.19a25.22,25.22,0,0,0,9,1.59"/></g></g></svg>