<svg xmlns="http://www.w3.org/2000/svg" xmlns:xlink="http://www.w3.org/1999/xlink" viewBox="0 0 60.69 33.2"><defs><style>.cls-1{fill:url(#linear-gradient);}.cls-2{fill:url(#linear-gradient-2);}.cls-3{fill:url(#linear-gradient-3);}</style><linearGradient id="linear-gradient" x1="38.64" y1="1.47" x2="48.4" y2="21.75" gradientTransform="translate(9.3 -18.07) rotate(25.69)" gradientUnits="userSpaceOnUse"><stop offset="0" stop-color="#9c9c9c"/><stop offset="1" stop-color="#5e5e5e"/></linearGradient><linearGradient id="linear-gradient-2" x1="0" y1="17.39" x2="39.09" y2="17.39" gradientTransform="matrix(1, 0, 0, 1, 0, 0)" xlink:href="#linear-gradient"/><linearGradient id="linear-gradient-3" x1="34.91" y1="14.74" x2="47.39" y2="36.35" gradientUnits="userSpaceOnUse"><stop offset="0" stop-color="#5e5e5e"/><stop offset="0.81" stop-color="#9c9c9c"/></linearGradient></defs><title>Asset 1</title><g id="Layer_2" data-name="Layer 2"><g id="Layer_1-2" data-name="Layer 1"><path class="cls-1" d="M56.51,10.38c-.47-4.62-2.75-7.93-6-9.23C45.79-.71,38-1.57,31.75,8.76,23.06,23.13,58.55,30,56.51,10.38Z"/><path class="cls-2" d="M38.33,19.31A35.59,35.59,0,0,0,33,8.87,18.56,18.56,0,0,0,19.15,1.62h0A22,22,0,0,0,7.49,4.06C3.37,6.29.15,9.73,0,13.63-.26,21.91,2.36,31.51,15.5,32.94a40.66,40.66,0,0,0,19.26-2.42C39.3,28.76,39.85,24.22,38.33,19.31Z"/><path class="cls-3" d="M26.05,32.22a23.32,23.32,0,0,1,2.33-10.39c3.2-6.44,10.42-13.41,25.92-2.58C78.55,36.2,26.05,33,26.05,33Z"/></g></g></svg>